<svg xmlns="http://www.w3.org/2000/svg" xmlns:xlink="http://www.w3.org/1999/xlink" viewBox="0 0 182.03 241.86"><defs><style>.cls-1{fill:url(#linear-gradient);}.cls-2{fill:url(#linear-gradient-2);}.cls-3{fill:url(#linear-gradient-3);}.cls-4{fill:url(#linear-gradient-4);}.cls-5{fill:url(#radial-gradient);}.cls-6{fill:url(#radial-gradient-2);}</style><linearGradient id="linear-gradient" x1="5161.49" y1="12820.29" x2="5279.36" y2="12686.52" gradientTransform="translate(13525.46 2962.2) rotate(123.99)" gradientUnits="userSpaceOnUse"><stop offset="0" stop-color="#f6df7b"/><stop offset="1" stop-color="#f47920"/></linearGradient><linearGradient id="linear-gradient-2" x1="5061.19" y1="12762.85" x2="5224.88" y2="12762.85" xlink:href="#linear-gradient"/><linearGradient id="linear-gradient-3" x1="-1427.03" y1="3048.3" x2="-1309.16" y2="2914.53" gradientTransform="matrix(0.56, 0.83, 0.83, -0.56, -1558.49, 2962.2)" xlink:href="#linear-gradient"/><linearGradient id="linear-gradient-4" x1="-1527.33" y1="2990.86" x2="-1363.64" y2="2990.86" gradientTransform="matrix(0.56, 0.83, 0.83, -0.56, -1558.49, 2962.2)" xlink:href="#linear-gradient"/><radialGradient id="radial-gradient" cx="5193.49" cy="12721.43" r="84.71" gradientTransform="translate(16379.04 9101.57) rotate(134.97) scale(1 1.4)" gradientUnits="userSpaceOnUse"><stop offset="0.33" stop-color="#f6df7b" stop-opacity="0.3"/><stop offset="0.49" stop-color="#f5c869" stop-opacity="0.3"/><stop offset="0.71" stop-color="#f48936" stop-opacity="0.3"/><stop offset="0.79" stop-color="#f36e21" stop-opacity="0.3"/><stop offset="0.95" stop-color="#a82923" stop-opacity="0.5"/></radialGradient><radialGradient id="radial-gradient-2" cx="-1410.86" cy="2925.96" r="84.71" gradientTransform="matrix(0.71, 0.71, 0.99, -0.99, -1801.83, 4057.43)" xlink:href="#radial-gradient"/></defs><g id="Layer_2" data-name="Layer 2"><g id="Layer_1-2" data-name="Layer 1"><path class="cls-1" d="M58.68,183.72h0c-34.78-23.44-54.62-72.59-27-113.54L14.88,95.07A85.87,85.87,0,0,0,38.07,214.28L79,241.86v-20A46,46,0,0,0,58.68,183.72Z"/><path class="cls-2" d="M58.68,183.71a49,49,0,0,1-13.24-68L61.56,91.77A101.86,101.86,0,0,0,79,34.78V0L31.67,70.17C4.06,111.12,23.9,160.27,58.68,183.71Z"/><path class="cls-3" d="M123.35,183.72h0c34.78-23.44,54.62-72.59,27-113.54l16.79,24.9A85.87,85.87,0,0,1,144,214.28l-40.91,27.58v-20A46,46,0,0,1,123.35,183.72Z"/><path class="cls-4" d="M123.35,183.71a49,49,0,0,0,13.24-68L120.47,91.77a101.94,101.94,0,0,1-17.42-57V0l47.31,70.17C178,111.12,158.13,160.27,123.35,183.71Z"/><path class="cls-5" d="M58.63,183.57h0C23.77,160.06,3.87,110.79,31.55,69.74l-16.83,25A86.08,86.08,0,0,0,38,214.21l41,27.65v-20A46.16,46.16,0,0,0,58.63,183.57Z"/><path class="cls-6" d="M123.4,183.57h0c34.87-23.51,54.76-72.78,27.08-113.83l16.83,25a86.08,86.08,0,0,1-23.25,119.5l-41,27.65v-20A46.16,46.16,0,0,1,123.4,183.57Z"/></g></g></svg>